<svg version="1.1" viewBox="0.0 0.0 1200.0 1200.0" fill="none" stroke="none" stroke-linecap="square" stroke-miterlimit="10" xmlns:xlink="http://www.w3.org/1999/xlink" xmlns="http://www.w3.org/2000/svg"><clipPath id="g31d40d8198a_0_29.0"><path d="m0 0l1200.0 0l0 1200.0l-1200.0 0l0 -1200.0z" clip-rule="nonzero"/></clipPath><g clip-path="url(#g31d40d8198a_0_29.0)"><path fill="#0c343d" d="m0 0l1200.0 0l0 1200.0l-1200.0 0z" fill-rule="evenodd"/><path fill="#000000" fill-opacity="0.0" d="m-0.7270341 458.93176l1201.4489 0l0 282.14172l-1201.4489 0z" fill-rule="evenodd"/><path fill="#ffffff" d="m137.63411 686.4026l0 -171.79688l73.015625 0q27.53125 0 40.015625 4.625q12.48439 4.625 19.98439 16.46875q7.5 11.828125 7.5 27.0625q0 19.34375 -11.375 31.9375q-11.35939 12.59375 -33.98439 15.875q11.25 6.5625 18.578125 14.421875q7.3281403 7.84375 19.750015 27.890625l20.96875 33.515625l-41.48439 0l-25.078125 -37.390625q-13.359375 -20.03125 -18.28125 -25.25q-4.921875 -5.21875 -10.4375 -7.140625q-5.5 -1.9375 -17.453125 -1.9375l-7.03125 0l0 71.71875l-34.6875 0zm34.6875 -99.140625l25.671875 0q24.953125 0 31.15625 -2.109375q6.21875 -2.109375 9.734375 -7.265625q3.515625 -5.15625 3.515625 -12.890625q0 -8.671875 -4.625 -14.0q-4.625 -5.34375 -13.0625 -6.75q-4.21875 -0.578125 -25.3125 -0.578125l-27.078125 0l0 43.59375zm131.4922 14.296875q0 -26.25 7.84375 -44.0625q5.859375 -13.125 16.0 -23.546875q10.140625 -10.4375 22.203125 -15.484375q16.0625 -6.7968445 37.03125 -6.7968445q37.96875 0 60.765625 23.56247q22.796875 23.546875 22.796875 65.5q0 41.609375 -22.625 65.109375q-22.609375 23.5 -60.46875 23.5q-38.3125 0 -60.9375 -23.375q-22.609375 -23.390625 -22.609375 -64.40625zm35.734375 -1.171875q0 29.171875 13.46875 44.234375q13.484375 15.0625 34.234375 15.0625q20.734375 0 34.03125 -14.9375q13.3125 -14.953125 13.3125 -44.828125q0 -29.53125 -12.953125 -44.0625q-12.953125 -14.53125 -34.390625 -14.53125q-21.453125 0 -34.578125 14.703125q-13.125 14.703125 -13.125 44.359375zm158.21094 86.015625l0 -171.79688l117.765594 0l0 29.0625l-83.078125 0l0 40.65625l71.71875 0l0 29.0625l-71.71875 0l0 73.015625l-34.68747 0zm145.30466 0l0 -171.79688l34.6875 0l0 171.79688l-34.6875 0zm68.67969 0l0 -170.39062l34.6875 0l0 141.4375l86.25 0l0 28.953125l-120.9375 0zm144.60156 0l0 -171.79688l34.6875 0l0 171.79688l-34.6875 0zm67.61719 -171.79688l63.40625 0q21.4375 0 32.6875 3.28125q15.124939 4.453125 25.906189 15.828125q10.78125 11.359375 16.40625 27.828125q5.625 16.453125 5.625 40.59375q0 21.21875 -5.28125 36.5625q-6.4375 18.75 -18.390625 30.359375q-9.03125 8.78125 -24.374939 13.703125q-11.484375 3.640625 -30.703125 3.640625l-65.28125 0l0 -171.79688zm34.6875 29.0625l0 113.78125l25.90625 0q14.53125 0 20.96875 -1.640625q8.4375 -2.109375 14.0 -7.140625q5.578064 -5.046875 9.093689 -16.578125q3.515625 -11.546875 3.515625 -31.46875q0 -19.921875 -3.515625 -30.578125q-3.515625 -10.671875 -9.843689 -16.640625q-6.328125 -5.984375 -16.0625 -8.09375q-7.265625 -1.640625 -28.46875 -1.640625l-15.59375 0z" fill-rule="nonzero"/><path fill="#0c343d" d="m863.2782 649.8819l21.13385 0l0 31.24408l-21.13385 0z" fill-rule="evenodd"/><path fill="#0c343d" d="m855.4042 635.6877l36.881897 0l0 8.37793l-36.881897 0z" fill-rule="evenodd"/></g></svg>