<svg width="238" height="76" viewBox="0 0 238 76" fill="none" xmlns="http://www.w3.org/2000/svg">
<rect width="238" height="76" fill="#0C343D"/>
<path d="M6.92543 60V16.3636H24.1413C27.4368 16.3636 30.2493 16.9531 32.5788 18.1321C34.9226 19.2969 36.7053 20.9517 37.9268 23.0966C39.1626 25.2273 39.7805 27.7344 39.7805 30.6179C39.7805 33.5156 39.1555 36.0085 37.9055 38.0966C36.6555 40.1705 34.8445 41.7614 32.4723 42.8693C30.1143 43.9773 27.2592 44.5312 23.907 44.5312H12.38V37.1165H22.4155C24.1768 37.1165 25.6399 36.875 26.8047 36.392C27.9695 35.9091 28.8359 35.1847 29.4041 34.2188C29.9865 33.2528 30.2777 32.0526 30.2777 30.6179C30.2777 29.169 29.9865 27.9474 29.4041 26.9531C28.8359 25.9588 27.9624 25.206 26.7834 24.6946C25.6186 24.169 24.1484 23.9062 22.3729 23.9062H16.1513V60H6.92543ZM30.4908 40.142L41.3359 60H31.1513L20.5405 40.142H30.4908ZM86.3999 38.1818C86.3999 42.9403 85.4979 46.9886 83.6939 50.3267C81.9041 53.6648 79.4609 56.2145 76.3643 57.9759C73.282 59.723 69.8161 60.5966 65.9666 60.5966C62.0888 60.5966 58.6087 59.7159 55.5263 57.9545C52.4439 56.1932 50.0078 53.6435 48.218 50.3054C46.4283 46.9673 45.5334 42.9261 45.5334 38.1818C45.5334 33.4233 46.4283 29.375 48.218 26.0369C50.0078 22.6989 52.4439 20.1562 55.5263 18.4091C58.6087 16.6477 62.0888 15.767 65.9666 15.767C69.8161 15.767 73.282 16.6477 76.3643 18.4091C79.4609 20.1562 81.9041 22.6989 83.6939 26.0369C85.4979 29.375 86.3999 33.4233 86.3999 38.1818ZM77.0462 38.1818C77.0462 35.0994 76.5845 32.5 75.6612 30.3835C74.7521 28.267 73.4666 26.6619 71.8047 25.5682C70.1428 24.4744 68.1967 23.9276 65.9666 23.9276C63.7365 23.9276 61.7905 24.4744 60.1286 25.5682C58.4666 26.6619 57.174 28.267 56.2507 30.3835C55.3416 32.5 54.8871 35.0994 54.8871 38.1818C54.8871 41.2642 55.3416 43.8636 56.2507 45.9801C57.174 48.0966 58.4666 49.7017 60.1286 50.7955C61.7905 51.8892 63.7365 52.4361 65.9666 52.4361C68.1967 52.4361 70.1428 51.8892 71.8047 50.7955C73.4666 49.7017 74.7521 48.0966 75.6612 45.9801C76.5845 43.8636 77.0462 41.2642 77.0462 38.1818ZM93.234 60V16.3636H122.126V23.9702H102.46V34.3679H120.208V41.9744H102.46V60H93.234ZM137.558 16.3636V60H128.332V16.3636H137.558ZM145.148 60V16.3636H154.374V52.3935H173.081V60H145.148ZM188.417 16.3636V60H179.191V16.3636H188.417ZM211.476 60H196.007V16.3636H211.604C215.993 16.3636 219.772 17.2372 222.939 18.9844C226.107 20.7173 228.543 23.2102 230.248 26.4631C231.966 29.7159 232.826 33.608 232.826 38.1392C232.826 42.6847 231.966 46.5909 230.248 49.858C228.543 53.125 226.093 55.6321 222.897 57.3793C219.715 59.1264 215.908 60 211.476 60ZM205.233 52.0952H211.093C213.82 52.0952 216.114 51.6122 217.975 50.6463C219.85 49.6662 221.256 48.1534 222.194 46.108C223.145 44.0483 223.621 41.392 223.621 38.1392C223.621 34.9148 223.145 32.2798 222.194 30.2344C221.256 28.1889 219.857 26.6832 217.996 25.7173C216.135 24.7514 213.841 24.2685 211.114 24.2685H205.233V52.0952Z" fill="white"/>
<rect x="179" y="46" width="10" height="2" fill="#0C343D"/>
<rect x="181" y="49" width="6" height="10" fill="#0C343D"/>
</svg>
