<svg width="238" height="76" viewBox="0 0 238 76" fill="none" xmlns="http://www.w3.org/2000/svg">
<path d="M3.00284 47V29.5455H9.5483C10.8892 29.5455 12.0142 29.7784 12.9233 30.2443C13.8381 30.7102 14.5284 31.3636 14.9943 32.2045C15.4659 33.0398 15.7017 34.0142 15.7017 35.1278C15.7017 36.2472 15.4631 37.2187 14.9858 38.0426C14.5142 38.8608 13.8182 39.4943 12.8977 39.9432C11.9773 40.3864 10.8466 40.608 9.50568 40.608H4.84375V37.983H9.07955C9.86364 37.983 10.5057 37.875 11.0057 37.6591C11.5057 37.4375 11.875 37.1165 12.1136 36.696C12.358 36.2699 12.4801 35.7472 12.4801 35.1278C12.4801 34.5085 12.358 33.9801 12.1136 33.5426C11.8693 33.0994 11.4972 32.7642 10.9972 32.5369C10.4972 32.304 9.85227 32.1875 9.0625 32.1875H6.16477V47H3.00284ZM12.0199 39.0909L16.3409 47H12.8125L8.56818 39.0909H12.0199ZM22.2429 47.2642C21.4134 47.2642 20.6662 47.1165 20.0014 46.821C19.3423 46.5199 18.8196 46.0767 18.4332 45.4915C18.0526 44.9062 17.8622 44.1847 17.8622 43.3267C17.8622 42.5881 17.9986 41.9773 18.2713 41.4943C18.544 41.0114 18.9162 40.625 19.3878 40.3352C19.8594 40.0455 20.3906 39.8267 20.9815 39.679C21.5781 39.5256 22.1946 39.4148 22.831 39.3466C23.598 39.267 24.2202 39.196 24.6974 39.1335C25.1747 39.0653 25.5213 38.9631 25.7372 38.8267C25.9588 38.6847 26.0696 38.4659 26.0696 38.1705V38.1193C26.0696 37.4773 25.8793 36.9801 25.4986 36.6278C25.1179 36.2756 24.5696 36.0994 23.8537 36.0994C23.098 36.0994 22.4986 36.2642 22.0554 36.5938C21.6179 36.9233 21.3224 37.3125 21.169 37.7614L18.2884 37.3523C18.5156 36.5568 18.8906 35.892 19.4134 35.358C19.9361 34.8182 20.5753 34.4148 21.331 34.1477C22.0866 33.875 22.9219 33.7386 23.8366 33.7386C24.4673 33.7386 25.0952 33.8125 25.7202 33.9602C26.3452 34.108 26.9162 34.3523 27.4332 34.6932C27.9503 35.0284 28.3651 35.4858 28.6776 36.0653C28.9957 36.6449 29.1548 37.3693 29.1548 38.2386V47H26.1889V45.2017H26.0866C25.8991 45.5653 25.6349 45.9062 25.294 46.2244C24.9588 46.5369 24.5355 46.7898 24.0241 46.983C23.5185 47.1705 22.9247 47.2642 22.2429 47.2642ZM23.044 44.9972C23.6634 44.9972 24.2003 44.875 24.6548 44.6307C25.1094 44.3807 25.4588 44.0511 25.7031 43.642C25.9531 43.233 26.0781 42.7869 26.0781 42.304V40.7614C25.9815 40.8409 25.8168 40.9148 25.5838 40.983C25.3565 41.0511 25.1009 41.1108 24.8168 41.1619C24.5327 41.2131 24.2514 41.2585 23.973 41.2983C23.6946 41.3381 23.4531 41.3722 23.2486 41.4006C22.7884 41.4631 22.3764 41.5653 22.0128 41.7074C21.6491 41.8494 21.3622 42.0483 21.152 42.304C20.9418 42.554 20.8366 42.8778 20.8366 43.2756C20.8366 43.8438 21.044 44.2727 21.4588 44.5625C21.8736 44.8523 22.402 44.9972 23.044 44.9972ZM32.2571 47V33.9091H35.3423V47H32.2571ZM33.8082 32.0511C33.3196 32.0511 32.8991 31.8892 32.5469 31.5653C32.1946 31.2358 32.0185 30.8409 32.0185 30.3807C32.0185 29.9148 32.1946 29.5199 32.5469 29.196C32.8991 28.8665 33.3196 28.7017 33.8082 28.7017C34.3026 28.7017 34.723 28.8665 35.0696 29.196C35.4219 29.5199 35.598 29.9148 35.598 30.3807C35.598 30.8409 35.4219 31.2358 35.0696 31.5653C34.723 31.8892 34.3026 32.0511 33.8082 32.0511ZM48.8615 37.3693L46.049 37.6761C45.9695 37.392 45.8303 37.125 45.6314 36.875C45.4382 36.625 45.1768 36.4233 44.8473 36.2699C44.5178 36.1165 44.1143 36.0398 43.6371 36.0398C42.995 36.0398 42.4553 36.179 42.0178 36.4574C41.5859 36.7358 41.3729 37.0966 41.3786 37.5398C41.3729 37.9205 41.5121 38.2301 41.7962 38.4688C42.0859 38.7074 42.5632 38.9034 43.228 39.0568L45.4609 39.5341C46.6996 39.8011 47.62 40.2244 48.2223 40.804C48.8303 41.3835 49.1371 42.142 49.1428 43.0795C49.1371 43.9034 48.8956 44.6307 48.4183 45.2614C47.9467 45.8864 47.2905 46.375 46.4496 46.7273C45.6087 47.0795 44.6428 47.2557 43.5518 47.2557C41.9496 47.2557 40.6598 46.9205 39.6825 46.25C38.7053 45.5739 38.1229 44.6335 37.9354 43.429L40.9439 43.1392C41.0803 43.7301 41.37 44.1761 41.8132 44.4773C42.2564 44.7784 42.8331 44.929 43.5433 44.929C44.2763 44.929 44.8643 44.7784 45.3075 44.4773C45.7564 44.1761 45.9808 43.804 45.9808 43.3608C45.9808 42.9858 45.8359 42.6761 45.5462 42.4318C45.2621 42.1875 44.8189 42 44.2166 41.8693L41.9837 41.4006C40.728 41.1392 39.799 40.6989 39.1967 40.0795C38.5945 39.4545 38.2962 38.6648 38.3018 37.7102C38.2962 36.9034 38.5149 36.2045 38.9581 35.6136C39.407 35.017 40.0291 34.5568 40.8246 34.233C41.6257 33.9034 42.549 33.7386 43.5945 33.7386C45.1286 33.7386 46.3359 34.0653 47.2166 34.7188C48.103 35.3722 48.6513 36.2557 48.8615 37.3693ZM57.4822 47.2557C56.1697 47.2557 55.0362 46.983 54.0817 46.4375C53.1328 45.8864 52.4027 45.108 51.8913 44.1023C51.38 43.0909 51.1243 41.9006 51.1243 40.5312C51.1243 39.1847 51.38 38.0028 51.8913 36.9858C52.4084 35.9631 53.13 35.1676 54.0561 34.5994C54.9822 34.0256 56.0703 33.7386 57.3203 33.7386C58.1271 33.7386 58.8885 33.8693 59.6044 34.1307C60.326 34.3864 60.9624 34.7841 61.5135 35.3239C62.0703 35.8636 62.5078 36.5511 62.826 37.3864C63.1442 38.2159 63.3033 39.2045 63.3033 40.3523V41.2983H52.5732V39.2188H60.3459C60.3402 38.6278 60.2124 38.1023 59.9624 37.642C59.7124 37.1761 59.3629 36.8097 58.9141 36.5426C58.4709 36.2756 57.9538 36.142 57.3629 36.142C56.7322 36.142 56.1783 36.2955 55.701 36.6023C55.2237 36.9034 54.8516 37.3011 54.5845 37.7955C54.3232 38.2841 54.1896 38.821 54.1839 39.4062V41.2216C54.1839 41.983 54.3232 42.6364 54.6016 43.1818C54.88 43.7216 55.2692 44.1364 55.7692 44.4261C56.2692 44.7102 56.8544 44.8523 57.5249 44.8523C57.9737 44.8523 58.38 44.7898 58.7436 44.6648C59.1072 44.5341 59.4226 44.3438 59.6896 44.0938C59.9567 43.8438 60.1584 43.5341 60.2947 43.1648L63.1754 43.4886C62.9936 44.25 62.647 44.9148 62.1357 45.483C61.63 46.0455 60.9822 46.483 60.1925 46.7955C59.4027 47.1023 58.4993 47.2557 57.4822 47.2557ZM70.8097 29.5455H74.3807L78.6506 37.267H78.821L83.0909 29.5455H86.6619L80.3125 40.4886V47H77.1591V40.4886L70.8097 29.5455ZM92.0376 47.2557C90.7592 47.2557 89.6513 46.9744 88.7138 46.4119C87.7763 45.8494 87.049 45.0625 86.532 44.0511C86.0206 43.0398 85.7649 41.858 85.7649 40.5057C85.7649 39.1534 86.0206 37.9687 86.532 36.9517C87.049 35.9347 87.7763 35.1449 88.7138 34.5824C89.6513 34.0199 90.7592 33.7386 92.0376 33.7386C93.3161 33.7386 94.424 34.0199 95.3615 34.5824C96.299 35.1449 97.0234 35.9347 97.5348 36.9517C98.0518 37.9687 98.3104 39.1534 98.3104 40.5057C98.3104 41.858 98.0518 43.0398 97.5348 44.0511C97.0234 45.0625 96.299 45.8494 95.3615 46.4119C94.424 46.9744 93.3161 47.2557 92.0376 47.2557ZM92.0547 44.7841C92.7479 44.7841 93.3274 44.5937 93.7933 44.2131C94.2592 43.8267 94.6058 43.3097 94.8331 42.6619C95.0661 42.0142 95.1825 41.2926 95.1825 40.4972C95.1825 39.696 95.0661 38.9716 94.8331 38.3239C94.6058 37.6705 94.2592 37.1506 93.7933 36.7642C93.3274 36.3778 92.7479 36.1847 92.0547 36.1847C91.3445 36.1847 90.7536 36.3778 90.282 36.7642C89.8161 37.1506 89.4666 37.6705 89.2337 38.3239C89.0064 38.9716 88.8928 39.696 88.8928 40.4972C88.8928 41.2926 89.0064 42.0142 89.2337 42.6619C89.4666 43.3097 89.8161 43.8267 90.282 44.2131C90.7536 44.5937 91.3445 44.7841 92.0547 44.7841ZM109.273 41.4943V33.9091H112.358V47H109.366V44.6733H109.23C108.935 45.4062 108.449 46.0057 107.773 46.4716C107.102 46.9375 106.276 47.1705 105.293 47.1705C104.435 47.1705 103.676 46.9801 103.017 46.5994C102.364 46.2131 101.852 45.6534 101.483 44.9205C101.114 44.1818 100.929 43.2898 100.929 42.2443V33.9091H104.014V41.767C104.014 42.5966 104.241 43.2557 104.696 43.7443C105.151 44.233 105.747 44.4773 106.486 44.4773C106.94 44.4773 107.381 44.3665 107.807 44.1449C108.233 43.9233 108.582 43.5938 108.855 43.1562C109.134 42.7131 109.273 42.1591 109.273 41.4943ZM115.531 47V33.9091H118.522V36.0909H118.658C118.897 35.3352 119.306 34.7528 119.886 34.3438C120.471 33.929 121.138 33.7216 121.888 33.7216C122.059 33.7216 122.249 33.7301 122.46 33.7472C122.675 33.7585 122.854 33.7784 122.996 33.8068V36.6449C122.866 36.5994 122.658 36.5597 122.374 36.5256C122.096 36.4858 121.826 36.4659 121.565 36.4659C121.002 36.4659 120.496 36.5881 120.048 36.8324C119.604 37.071 119.255 37.4034 118.999 37.8295C118.744 38.2557 118.616 38.7472 118.616 39.304V47H115.531ZM131.136 47V29.5455H142.317V32.196H134.298V36.9347H141.55V39.5852H134.298V47H131.136ZM145.062 47V33.9091H148.147V47H145.062ZM146.613 32.0511C146.124 32.0511 145.704 31.8892 145.352 31.5653C144.999 31.2358 144.823 30.8409 144.823 30.3807C144.823 29.9148 144.999 29.5199 145.352 29.196C145.704 28.8665 146.124 28.7017 146.613 28.7017C147.107 28.7017 147.528 28.8665 147.874 29.196C148.227 29.5199 148.403 29.9148 148.403 30.3807C148.403 30.8409 148.227 31.2358 147.874 31.5653C147.528 31.8892 147.107 32.0511 146.613 32.0511ZM161.666 37.3693L158.854 37.6761C158.774 37.392 158.635 37.125 158.436 36.875C158.243 36.625 157.982 36.4233 157.652 36.2699C157.322 36.1165 156.919 36.0398 156.442 36.0398C155.8 36.0398 155.26 36.179 154.822 36.4574C154.391 36.7358 154.178 37.0966 154.183 37.5398C154.178 37.9205 154.317 38.2301 154.601 38.4688C154.891 38.7074 155.368 38.9034 156.033 39.0568L158.266 39.5341C159.504 39.8011 160.425 40.2244 161.027 40.804C161.635 41.3835 161.942 42.142 161.947 43.0795C161.942 43.9034 161.7 44.6307 161.223 45.2614C160.751 45.8864 160.095 46.375 159.254 46.7273C158.413 47.0795 157.447 47.2557 156.357 47.2557C154.754 47.2557 153.464 46.9205 152.487 46.25C151.51 45.5739 150.928 44.6335 150.74 43.429L153.749 43.1392C153.885 43.7301 154.175 44.1761 154.618 44.4773C155.061 44.7784 155.638 44.929 156.348 44.929C157.081 44.929 157.669 44.7784 158.112 44.4773C158.561 44.1761 158.786 43.804 158.786 43.3608C158.786 42.9858 158.641 42.6761 158.351 42.4318C158.067 42.1875 157.624 42 157.021 41.8693L154.788 41.4006C153.533 41.1392 152.604 40.6989 152.001 40.0795C151.399 39.4545 151.101 38.6648 151.107 37.7102C151.101 36.9034 151.32 36.2045 151.763 35.6136C152.212 35.017 152.834 34.5568 153.629 34.233C154.43 33.9034 155.354 33.7386 156.399 33.7386C157.933 33.7386 159.141 34.0653 160.021 34.7188C160.908 35.3722 161.456 36.2557 161.666 37.3693ZM170.202 47.2557C168.895 47.2557 167.773 46.9688 166.835 46.3949C165.903 45.821 165.185 45.0284 164.679 44.017C164.179 43 163.929 41.8295 163.929 40.5057C163.929 39.1761 164.185 38.0028 164.696 36.9858C165.207 35.9631 165.929 35.1676 166.861 34.5994C167.798 34.0256 168.906 33.7386 170.185 33.7386C171.247 33.7386 172.188 33.9347 173.006 34.3267C173.83 34.7131 174.486 35.2614 174.974 35.9716C175.463 36.6761 175.741 37.5 175.81 38.4432H172.861C172.741 37.8125 172.457 37.2869 172.009 36.8665C171.565 36.4403 170.972 36.2273 170.227 36.2273C169.597 36.2273 169.043 36.3977 168.565 36.7386C168.088 37.0739 167.716 37.5568 167.449 38.1875C167.188 38.8182 167.057 39.5739 167.057 40.4545C167.057 41.3466 167.188 42.1136 167.449 42.7557C167.71 43.392 168.077 43.8835 168.548 44.2301C169.026 44.571 169.585 44.7415 170.227 44.7415C170.682 44.7415 171.088 44.6562 171.446 44.4858C171.81 44.3097 172.114 44.0568 172.358 43.7273C172.602 43.3977 172.77 42.9972 172.861 42.5256H175.81C175.736 43.4517 175.463 44.2727 174.991 44.9886C174.52 45.6989 173.878 46.2557 173.065 46.6591C172.253 47.0568 171.298 47.2557 170.202 47.2557ZM182.11 47.2642C181.281 47.2642 180.533 47.1165 179.869 46.821C179.21 46.5199 178.687 46.0767 178.3 45.4915C177.92 44.9062 177.729 44.1847 177.729 43.3267C177.729 42.5881 177.866 41.9773 178.138 41.4943C178.411 41.0114 178.783 40.625 179.255 40.3352C179.727 40.0455 180.258 39.8267 180.849 39.679C181.445 39.5256 182.062 39.4148 182.698 39.3466C183.465 39.267 184.087 39.196 184.565 39.1335C185.042 39.0653 185.388 38.9631 185.604 38.8267C185.826 38.6847 185.937 38.4659 185.937 38.1705V38.1193C185.937 37.4773 185.746 36.9801 185.366 36.6278C184.985 36.2756 184.437 36.0994 183.721 36.0994C182.965 36.0994 182.366 36.2642 181.923 36.5938C181.485 36.9233 181.19 37.3125 181.036 37.7614L178.156 37.3523C178.383 36.5568 178.758 35.892 179.281 35.358C179.803 34.8182 180.442 34.4148 181.198 34.1477C181.954 33.875 182.789 33.7386 183.704 33.7386C184.335 33.7386 184.962 33.8125 185.587 33.9602C186.212 34.108 186.783 34.3523 187.3 34.6932C187.817 35.0284 188.232 35.4858 188.545 36.0653C188.863 36.6449 189.022 37.3693 189.022 38.2386V47H186.056V45.2017H185.954C185.766 45.5653 185.502 45.9062 185.161 46.2244C184.826 46.5369 184.403 46.7898 183.891 46.983C183.386 47.1705 182.792 47.2642 182.11 47.2642ZM182.911 44.9972C183.531 44.9972 184.067 44.875 184.522 44.6307C184.977 44.3807 185.326 44.0511 185.57 43.642C185.82 43.233 185.945 42.7869 185.945 42.304V40.7614C185.849 40.8409 185.684 40.9148 185.451 40.983C185.224 41.0511 184.968 41.1108 184.684 41.1619C184.4 41.2131 184.119 41.2585 183.84 41.2983C183.562 41.3381 183.32 41.3722 183.116 41.4006C182.656 41.4631 182.244 41.5653 181.88 41.7074C181.516 41.8494 181.229 42.0483 181.019 42.304C180.809 42.554 180.704 42.8778 180.704 43.2756C180.704 43.8438 180.911 44.2727 181.326 44.5625C181.741 44.8523 182.269 44.9972 182.911 44.9972ZM195.21 29.5455V47H192.124V29.5455H195.21ZM204.472 47V29.5455H207.634V44.3494H215.321V47H204.472ZM217.929 47V33.9091H221.014V47H217.929ZM219.48 32.0511C218.991 32.0511 218.571 31.8892 218.219 31.5653C217.866 31.2358 217.69 30.8409 217.69 30.3807C217.69 29.9148 217.866 29.5199 218.219 29.196C218.571 28.8665 218.991 28.7017 219.48 28.7017C219.974 28.7017 220.395 28.8665 220.741 29.196C221.094 29.5199 221.27 29.9148 221.27 30.3807C221.27 30.8409 221.094 31.2358 220.741 31.5653C220.395 31.8892 219.974 32.0511 219.48 32.0511ZM229.045 47.2301C228.016 47.2301 227.096 46.9659 226.283 46.4375C225.471 45.9091 224.829 45.142 224.357 44.1364C223.886 43.1307 223.65 41.9091 223.65 40.4716C223.65 39.017 223.888 37.7898 224.366 36.7898C224.849 35.7841 225.499 35.0256 226.317 34.5142C227.136 33.9972 228.048 33.7386 229.053 33.7386C229.82 33.7386 230.451 33.8693 230.945 34.1307C231.44 34.3864 231.832 34.696 232.121 35.0597C232.411 35.4176 232.636 35.7557 232.795 36.0739H232.923V29.5455H236.016V47H232.982V44.9375H232.795C232.636 45.2557 232.406 45.5937 232.104 45.9517C231.803 46.304 231.406 46.6051 230.911 46.8551C230.417 47.1051 229.795 47.2301 229.045 47.2301ZM229.906 44.6989C230.559 44.6989 231.116 44.5227 231.576 44.1705C232.036 43.8125 232.386 43.3153 232.624 42.679C232.863 42.0426 232.982 41.3011 232.982 40.4545C232.982 39.608 232.863 38.8722 232.624 38.2472C232.391 37.6222 232.045 37.1364 231.585 36.7898C231.13 36.4432 230.57 36.2699 229.906 36.2699C229.218 36.2699 228.644 36.4489 228.184 36.8068C227.724 37.1648 227.377 37.6591 227.144 38.2898C226.911 38.9205 226.795 39.642 226.795 40.4545C226.795 41.2727 226.911 42.0028 227.144 42.6449C227.383 43.2812 227.732 43.7841 228.192 44.1534C228.658 44.517 229.229 44.6989 229.906 44.6989Z" fill="white"/>
</svg>
