<svg width="238" height="76" viewBox="0 0 238 76" fill="none" xmlns="http://www.w3.org/2000/svg">
<path d="M7.89027 60V16.3636H25.1062C28.4016 16.3636 31.2141 16.9531 33.5437 18.1321C35.8874 19.2969 37.6701 20.9517 38.8917 23.0966C40.1275 25.2273 40.7454 27.7344 40.7454 30.6179C40.7454 33.5156 40.1204 36.0085 38.8704 38.0966C37.6204 40.1705 35.8093 41.7614 33.4371 42.8693C31.0792 43.9773 28.2241 44.5312 24.8718 44.5312H13.3448V37.1165H23.3803C25.1417 37.1165 26.6048 36.875 27.7695 36.392C28.9343 35.9091 29.8008 35.1847 30.369 34.2188C30.9513 33.2528 31.2425 32.0526 31.2425 30.6179C31.2425 29.169 30.9513 27.9474 30.369 26.9531C29.8008 25.9588 28.9272 25.206 27.7482 24.6946C26.5835 24.169 25.1133 23.9062 23.3377 23.9062H17.1161V60H7.89027ZM31.4556 40.142L42.3008 60H32.1161L21.5053 40.142H31.4556ZM87.3647 38.1818C87.3647 42.9403 86.4627 46.9886 84.6587 50.3267C82.869 53.6648 80.4258 56.2145 77.3292 57.9759C74.2468 59.723 70.7809 60.5966 66.9315 60.5966C63.0536 60.5966 59.5735 59.7159 56.4911 57.9545C53.4087 56.1932 50.9727 53.6435 49.1829 50.3054C47.3931 46.9673 46.4982 42.9261 46.4982 38.1818C46.4982 33.4233 47.3931 29.375 49.1829 26.0369C50.9727 22.6989 53.4087 20.1562 56.4911 18.4091C59.5735 16.6477 63.0536 15.767 66.9315 15.767C70.7809 15.767 74.2468 16.6477 77.3292 18.4091C80.4258 20.1562 82.869 22.6989 84.6587 26.0369C86.4627 29.375 87.3647 33.4233 87.3647 38.1818ZM78.011 38.1818C78.011 35.0994 77.5494 32.5 76.6261 30.3835C75.717 28.267 74.4315 26.6619 72.7695 25.5682C71.1076 24.4744 69.1616 23.9276 66.9315 23.9276C64.7013 23.9276 62.7553 24.4744 61.0934 25.5682C59.4315 26.6619 58.1388 28.267 57.2156 30.3835C56.3065 32.5 55.8519 35.0994 55.8519 38.1818C55.8519 41.2642 56.3065 43.8636 57.2156 45.9801C58.1388 48.0966 59.4315 49.7017 61.0934 50.7955C62.7553 51.8892 64.7013 52.4361 66.9315 52.4361C69.1616 52.4361 71.1076 51.8892 72.7695 50.7955C74.4315 49.7017 75.717 48.0966 76.6261 45.9801C77.5494 43.8636 78.011 41.2642 78.011 38.1818ZM94.1989 60V16.3636H123.091V23.9702H103.425V34.3679H121.173V41.9744H103.425V60H94.1989ZM138.522 16.3636V60H129.297V16.3636H138.522ZM146.113 60V16.3636H155.339V52.3935H174.046V60H146.113ZM209.511 60H194.043V16.3636H209.639C214.028 16.3636 217.807 17.2372 220.974 18.9844C224.142 20.7173 226.578 23.2102 228.283 26.4631C230.001 29.7159 230.861 33.608 230.861 38.1392C230.861 42.6847 230.001 46.5909 228.283 49.858C226.578 53.125 224.128 55.6321 220.932 57.3793C217.75 59.1264 213.943 60 209.511 60ZM203.268 52.0952H209.128C211.855 52.0952 214.149 51.6122 216.01 50.6463C217.885 49.6662 219.291 48.1534 220.229 46.108C221.18 44.0483 221.656 41.392 221.656 38.1392C221.656 34.9148 221.18 32.2798 220.229 30.2344C219.291 28.1889 217.892 26.6832 216.031 25.7173C214.17 24.7514 211.876 24.2685 209.149 24.2685H203.268V52.0952Z" fill="#0C343D"/>
<path d="M179 16.5H188.5V46H179V16.5Z" fill="#0C343D"/>
<path d="M186 48H188.5V60H186V48Z" fill="#0C343D"/>
<path d="M181.5 58H183.5H186V60H181.5V58Z" fill="#0C343D"/>
<path d="M181.5 48H183.5H186V50H181.5V48Z" fill="#0C343D"/>
<path d="M179 48H181.5V60H179V48Z" fill="#0C343D"/>
</svg>
